<?xml version="1.0" standalone="no"?>
<!DOCTYPE svg PUBLIC "-//W3C//DTD SVG 20010904//EN"
 "http://www.w3.org/TR/2001/REC-SVG-20010904/DTD/svg10.dtd">
<svg version="1.0" xmlns="http://www.w3.org/2000/svg"
 width="770.000000pt" height="770.000000pt" viewBox="0 0 770.000000 770.000000"
 preserveAspectRatio="xMidYMid meet">
<metadata>
Created by potrace 1.16, written by Peter Selinger 2001-2019
</metadata>
<g transform="translate(0.000000,770.000000) scale(0.100000,-0.100000)"
fill="#000000" stroke="none">
<path d="M3512 5300 c-53 -32 -74 -75 -69 -143 l3 -58 311 -311 311 -311 67
69 c37 38 63 63 59 55 -5 -9 -3 -12 4 -7 7 4 12 11 12 17 0 5 16 26 35 46 l35
38 -297 298 c-164 164 -310 305 -325 313 -39 20 -107 18 -146 -6z"/>
<path d="M4450 5081 c-40 -21 -79 -83 -80 -126 0 -16 39 -177 87 -357 73 -276
90 -328 107 -332 11 -3 24 -2 30 2 6 4 14 7 19 8 4 1 8 2 10 3 1 2 15 4 30 6
16 2 34 9 41 15 8 5 21 8 30 4 9 -3 16 -1 16 4 0 6 8 11 18 11 38 1 52 5 52
13 0 4 7 8 15 8 8 0 15 6 15 12 0 34 -173 656 -189 678 -48 67 -132 88 -201
51z"/>
<path d="M2635 4796 c-99 -43 -123 -176 -46 -250 41 -39 1020 -429 1039 -414
7 6 11 17 8 25 -3 7 -1 13 5 13 6 0 9 6 6 13 -3 7 3 31 14 53 10 21 18 45 19
52 0 8 5 10 12 6 8 -5 9 -2 4 11 -4 10 0 28 9 41 9 13 13 24 10 24 -3 0 -1 9
5 19 9 18 -27 34 -493 220 -277 111 -516 201 -532 201 -17 -1 -44 -7 -60 -14z"/>
<path d="M2128 3961 c-40 -36 -42 -42 -46 -104 -4 -65 -4 -66 36 -109 l41 -43
648 -3 c611 -3 710 0 687 16 -14 11 -16 33 -3 48 6 8 7 14 3 14 -5 0 -10 44
-11 98 -1 53 -2 103 -2 110 -1 9 -139 12 -656 12 l-656 0 -41 -39z"/>
<path d="M4759 3962 c-41 -37 -43 -43 -47 -105 -4 -65 -4 -66 36 -108 37 -41
43 -43 105 -47 65 -4 66 -4 108 36 41 37 43 43 47 105 4 65 4 66 -36 108 -37
41 -43 43 -105 47 -65 4 -66 4 -108 -36z"/>
<path d="M3116 3380 c-289 -115 -509 -208 -523 -222 -31 -28 -53 -77 -53 -119
0 -73 78 -149 151 -149 50 0 1035 394 1030 412 -2 7 -4 21 -5 30 0 9 -5 14
-10 11 -5 -4 -7 3 -4 15 4 14 2 20 -5 15 -6 -4 -8 2 -5 15 4 12 2 22 -3 22 -5
0 -9 9 -9 19 0 11 -5 21 -10 23 -6 2 -13 17 -16 33 -3 16 -10 33 -16 36 -6 4
-7 12 -4 18 4 6 2 11 -4 11 -6 0 -9 4 -5 9 3 5 2 12 -3 15 -4 2 -232 -85 -506
-194z"/>
<path d="M4545 3427 c-23 -67 -175 -659 -175 -682 0 -43 30 -96 69 -122 68
-46 181 -21 216 47 16 31 185 654 185 682 0 11 -5 15 -15 12 -8 -4 -15 -1 -15
6 0 7 -8 10 -20 7 -11 -3 -17 -1 -14 4 3 6 -5 7 -20 3 -17 -4 -26 -2 -26 6 0
7 -6 10 -14 7 -8 -3 -17 -3 -21 1 -3 4 -20 7 -37 8 -17 1 -33 6 -37 10 -6 9
-14 12 -54 19 -10 2 -20 -1 -22 -8z"/>
<path d="M3763 2928 c-165 -167 -306 -313 -312 -325 -31 -61 -2 -154 61 -194
50 -31 133 -23 184 18 21 18 163 156 314 307 l274 276 -37 38 c-21 21 -35 41
-32 45 3 4 2 5 -1 3 -3 -3 -37 27 -75 65 -37 38 -70 69 -71 69 -2 0 -139 -136
-305 -302z"/>
</g>
</svg>
